<svg width="62" height="70" viewBox="0 0 62 70" fill="none" xmlns="http://www.w3.org/2000/svg">
<path d="M9 4C9 1.79086 10.7909 0 13 0H44L62 18V66C62 68.2091 60.2091 70 58 70H13C10.7909 70 9 68.2091 9 66V4Z" fill="#E2E5E7"/>
<path d="M44 13V0L62 18H49C46 18 44 16 44 13Z" fill="#B0B7BD"/>
<path d="M62 18V30L50 18H62Z" fill="#CAD1D8"/>
<rect y="33" width="53" height="26" rx="2" fill="#84BD5A"/>
<path fill-rule="evenodd" clip-rule="evenodd" d="M13 41.5C13 40.9477 13.4477 40.5 14 40.5H21.5C21.8844 40.5 22.2348 40.7203 22.4013 41.0668C22.5678 41.4133 22.521 41.8245 22.2809 42.1247L15.5806 50.5H22C22.5523 50.5 23 50.9477 23 51.5C23 52.0523 22.5523 52.5 22 52.5H13.5C13.1156 52.5 12.7652 52.2797 12.5987 51.9332C12.4322 51.5867 12.479 51.1755 12.7191 50.8753L19.4194 42.5H14C13.4477 42.5 13 42.0523 13 41.5ZM26.5 40.5C27.0523 40.5 27.5 40.9477 27.5 41.5V51.5C27.5 52.0523 27.0523 52.5 26.5 52.5C25.9477 52.5 25.5 52.0523 25.5 51.5V41.5C25.5 40.9477 25.9477 40.5 26.5 40.5ZM30.5 41.5C30.5 40.9477 30.9477 40.5 31.5 40.5C34.7371 40.5 36.8242 40.7386 38.1133 41.3452C38.8024 41.6694 39.3139 42.1204 39.6291 42.7256C39.9316 43.3064 40 43.93 40 44.5C40 45.1741 39.936 45.8693 39.658 46.5032C39.3639 47.1738 38.8673 47.6944 38.1554 48.0713C37.474 48.432 36.6063 48.6562 35.5447 48.7961C34.7008 48.9073 33.6948 48.97 32.5 48.9914V51.5C32.5 52.0523 32.0523 52.5 31.5 52.5C30.9477 52.5 30.5 52.0523 30.5 51.5V41.5ZM32.5 46.9911C33.6302 46.9699 34.5442 46.9107 35.2834 46.8133C36.2375 46.6875 36.8385 46.5055 37.2196 46.3037C37.5702 46.1181 37.7299 45.92 37.8264 45.6999C37.939 45.4432 38 45.0759 38 44.5C38 44.07 37.9434 43.8186 37.8553 43.6494C37.7798 43.5046 37.6351 43.3306 37.2617 43.1548C36.5159 42.8038 35.1117 42.5579 32.5 42.5089V46.9911Z" fill="white"/>
</svg>
