<svg width="62" height="70" viewBox="0 0 62 70" fill="none" xmlns="http://www.w3.org/2000/svg">
<path d="M9 4C9 1.79086 10.7909 0 13 0H44L62 18V66C62 68.2091 60.2091 70 58 70H13C10.7909 70 9 68.2091 9 66V4Z" fill="#E2E5E7"/>
<rect y="33" width="53" height="26" rx="2" fill="#A066AA"/>
<path d="M44 13V0L62 18H49C46 18 44 16 44 13Z" fill="#B0B7BD"/>
<path d="M62 18V30L50 18H62Z" fill="#CAD1D8"/>
<path fill-rule="evenodd" clip-rule="evenodd" d="M21.169 40.5564C21.5697 40.4158 22.0156 40.5437 22.2809 40.8753L28.5 48.6492V41.5C28.5 40.9477 28.9477 40.5 29.5 40.5C30.0523 40.5 30.5 40.9477 30.5 41.5V51.5C30.5 51.9247 30.2318 52.3031 29.831 52.4436C29.4303 52.5842 28.9844 52.4563 28.7191 52.1247L22.5 44.3508V51.5C22.5 52.0523 22.0523 52.5 21.5 52.5C20.9477 52.5 20.5 52.0523 20.5 51.5V41.5C20.5 41.0753 20.7682 40.6969 21.169 40.5564ZM8.5 41.5C8.5 40.9477 8.94772 40.5 9.5 40.5H9.52503C11.1293 40.5 12.4294 40.5 13.4605 40.548C14.4809 40.5954 15.3412 40.6923 16.0203 40.932C16.7557 41.1915 17.3206 41.6347 17.6497 42.3455C17.9428 42.9787 18 43.7306 18 44.5C18 45.2792 17.9398 46.0382 17.6653 46.6971C17.3669 47.4133 16.8505 47.9329 16.1133 48.2798C15.4233 48.6045 14.5504 48.7736 13.5067 48.8707C12.6752 48.948 11.6807 48.9837 10.5 48.9954V51.5C10.5 52.0523 10.0523 52.5 9.5 52.5C8.94772 52.5 8.5 52.0523 8.5 51.5V41.5ZM10.5 46.9953C11.6445 46.9837 12.57 46.9492 13.3214 46.8793C14.2933 46.7889 14.8892 46.6455 15.2617 46.4702C15.587 46.3171 15.7269 46.1492 15.8191 45.9279C15.9352 45.6493 16 45.2208 16 44.5C16 43.7694 15.9322 43.3963 15.8347 43.1857C15.7732 43.0528 15.6818 42.9334 15.3547 42.818C14.9713 42.6827 14.3629 42.5921 13.3676 42.5458C12.5984 42.51 11.6595 42.5022 10.5 42.5005V46.9953Z" fill="white"/>
<path d="M40 40.5C38.1306 40.5 36.4763 40.8973 35.2826 41.9318C34.0611 42.9904 33.5 44.5584 33.5 46.5C33.5 48.4416 34.0611 50.0096 35.2826 51.0682C36.4763 52.1027 38 52.5 39 52.5H41C43.5 52.5 44.5 51 44.5 49C44.5 46 43 45.5 42 45.5H40C39.5 45.5 39 45.9477 39 46.5C39 47.0523 39.4477 47.5 40 47.5H41C41.9769 47.5 42.5 48 42.5 49C42.5 50 42 50.5 41 50.5H40C38.3694 50.5 37.2737 50.1473 36.5924 49.5568C35.9389 48.9904 35.5 48.0584 35.5 46.5C35.5 44.9416 35.9389 44.0096 36.5924 43.4432C37.2737 42.8527 38.3694 42.5 40 42.5C41.8459 42.5 42.5466 42.9608 42.7929 43.2071C43.1834 43.5976 43.8166 43.5976 44.2071 43.2071C44.5976 42.8166 44.5976 42.1834 44.2071 41.7929C43.4534 41.0392 42.1541 40.5 40 40.5Z" fill="white"/>
</svg>
